<?xml version="1.0" encoding="utf-8"?>
<!-- Generator: Adobe Illustrator 24.0.1, SVG Export Plug-In . SVG Version: 6.00 Build 0)  -->
<svg version="1.1" id="Layer_1" xmlns="http://www.w3.org/2000/svg" xmlns:xlink="http://www.w3.org/1999/xlink" x="0px" y="0px"
	 viewBox="0 0 401 401" style="enable-background:new 0 0 401 401;" xml:space="preserve">
<style type="text/css">
	.st0{display:none;}
	.st1{fill:#FFFFFF;stroke:#FFFFFF;stroke-width:30;stroke-miterlimit:10;}
	.st2{fill:#FFFFFF;stroke:#FFFFFF;stroke-width:13;stroke-miterlimit:10;}
</style>
<rect class="st0" width="401" height="401"/>
<path class="st1" d="M359.9,244.8c-4.8,0-8.7,3.9-8.7,8.7v77.2c0,14.4-11.7,26.1-26.1,26.1H81.2c-14.4,0-26.1-11.7-26.1-26.1V104.2
	c0-14.4,11.7-26.1,26.1-26.1h77.2c4.8,0,8.7-3.9,8.7-8.7c0-4.8-3.9-8.7-8.7-8.7H81.2c-24,0-43.4,19.5-43.5,43.5v226.5
	c0,24,19.5,43.4,43.5,43.5h243.9c24,0,43.4-19.5,43.5-43.5v-77.2C368.6,248.7,364.7,244.8,359.9,244.8z"/>
<path class="st2" d="M365.1,38.3c-15.3-15.3-40-15.3-55.3,0L154.7,193.4c-1.1,1.1-1.8,2.4-2.2,3.8l-20.4,73.6c-0.8,3,0,6.3,2.2,8.5
	c2.2,2.2,5.4,3.1,8.5,2.2l73.6-20.4c1.4-0.4,2.8-1.2,3.8-2.2l155.1-155.1c15.3-15.3,15.3-40,0-55.3L365.1,38.3z M173.7,199.1
	L300.6,72.1l40.9,40.9L214.6,240L173.7,199.1z M165.5,215.5l32.7,32.7L153,260.7L165.5,215.5z M363,91.6l-9.2,9.2l-40.9-40.9
	l9.2-9.2c8.5-8.5,22.2-8.5,30.7,0L363,60.8C371.5,69.3,371.5,83.1,363,91.6z"/>
</svg>
