<?xml version="1.0" encoding="utf-8"?>
<!-- Generator: Adobe Illustrator 24.0.1, SVG Export Plug-In . SVG Version: 6.00 Build 0)  -->
<svg version="1.1" id="Layer_1" xmlns="http://www.w3.org/2000/svg" xmlns:xlink="http://www.w3.org/1999/xlink" x="0px" y="0px"
	 viewBox="0 0 453 453" style="enable-background:new 0 0 453 453;" xml:space="preserve">
<style type="text/css">
	.st0{fill:#FFFFFF;}
	.st1{fill:#FFFFFF;stroke:#FFFFFF;stroke-width:18;stroke-miterlimit:10;}
</style>
<path class="st0" d="M341.8,61.5c-2.5-2.5-6.3-3.2-9.5-1.9s-5.4,4.6-5.4,8.1v46.8c-47.3,1.9-71.1,21.5-74.7,24.8
	c-23.9,19.6-40.2,46.9-46.1,77.3c-3,14.7-3.5,29.7-1.6,44.5l0,0.1c0,0.1,0,0.3,0.1,0.4l1.9,10.7c0.6,3.6,3.4,6.4,7,7.1
	c3.6,0.7,7.2-1,9.1-4.1l5.6-9.3c17.1-28.5,38.5-47.4,63.5-56.2c11.3-4,23.2-5.7,35.2-5.2V253c0,3.5,2.1,6.7,5.4,8.1
	c3.3,1.4,7.1,0.6,9.6-1.9l92.6-93.1c3.4-3.4,3.4-9,0-12.4L341.8,61.5z"/>
<path class="st1" d="M404.9,317.1c-4.8,0-8.8,3.9-8.8,8.8v37.1c0,14.5-11.8,26.3-26.3,26.3h-287c-14.5,0-26.3-11.8-26.3-26.3V154
	c0-14.5,11.8-26.3,26.3-26.3h60.6c4.8,0,8.8-3.9,8.8-8.8s-3.9-8.8-8.8-8.8H82.8C58.6,110.2,39,129.8,39,154v208.9
	c0,24.2,19.6,43.8,43.8,43.8h287c24.2,0,43.8-19.6,43.8-43.8v-37.1C413.6,321,409.7,317.1,404.9,317.1z"/>
</svg>
