<?xml version="1.0" encoding="utf-8"?>
<!-- Generator: Adobe Illustrator 24.0.1, SVG Export Plug-In . SVG Version: 6.00 Build 0)  -->
<svg version="1.1" id="Capa_1" xmlns="http://www.w3.org/2000/svg" xmlns:xlink="http://www.w3.org/1999/xlink" x="0px" y="0px"
	 viewBox="0 0 384 384" style="enable-background:new 0 0 384 384;" xml:space="preserve">
<style type="text/css">
	.st0{fill:#FFFFFF;}
</style>
<g>
	<g>
		<path class="st0" d="M373.3,128H352c-5.9,0-10.7,4.8-10.7,10.7v172.5l-308-308c-2-2-4.7-3.1-7.4-3.1c-2.8,0-5.6,1-7.7,3.1
			L3.1,18.2c-2,2-3.1,4.6-3.1,7.3c-0.1,2.8,1,5.7,3.1,7.8l308,308H138.7c-5.9,0-10.7,4.8-10.7,10.7v21.3c0,5.9,4.8,10.7,10.7,10.7
			h234.7c5.9,0,10.7-4.8,10.7-10.7V138.7C384,132.8,379.2,128,373.3,128z"/>
	</g>
</g>
</svg>
